<mxfile host="app.diagrams.net" modified="2021-01-31T20:09:27.846Z" agent="5.0 (Windows NT 6.3; Win64; x64) AppleWebKit/537.36 (KHTML, like Gecko) Chrome/88.0.4324.104 Safari/537.36" etag="JSP21MHrxcagNA2ypMU5" version="14.2.9" type="github">
  <diagram id="yccTFreWIErJr3yfAbWR" name="Page-1">
    <mxGraphModel dx="868" dy="450" grid="1" gridSize="10" guides="1" tooltips="1" connect="1" arrows="1" fold="1" page="1" pageScale="1" pageWidth="850" pageHeight="1100" math="0" shadow="0">
      <root>
        <mxCell id="0" />
        <mxCell id="1" parent="0" />
        <mxCell id="-EnCmzLxLTZiHMwrgFdv-1" value="String: greeting = &quot;Welcome &quot;" style="rounded=0;whiteSpace=wrap;html=1;fillColor=#dae8fc;strokeColor=#6c8ebf;" vertex="1" parent="1">
          <mxGeometry x="120" y="40" width="160" height="60" as="geometry" />
        </mxCell>
        <mxCell id="-EnCmzLxLTZiHMwrgFdv-2" value="onClick" style="rounded=0;whiteSpace=wrap;html=1;fillColor=#d5e8d4;strokeColor=#82b366;" vertex="1" parent="1">
          <mxGeometry x="120" y="160" width="160" height="60" as="geometry" />
        </mxCell>
        <mxCell id="-EnCmzLxLTZiHMwrgFdv-3" value="String: name = input" style="rounded=0;whiteSpace=wrap;html=1;fillColor=#dae8fc;strokeColor=#6c8ebf;" vertex="1" parent="1">
          <mxGeometry x="360" y="160" width="160" height="60" as="geometry" />
        </mxCell>
        <mxCell id="-EnCmzLxLTZiHMwrgFdv-4" value="String: message =&amp;nbsp;&lt;br&gt;concat greeting and name" style="rounded=0;whiteSpace=wrap;html=1;fillColor=#dae8fc;strokeColor=#6c8ebf;" vertex="1" parent="1">
          <mxGeometry x="600" y="160" width="160" height="60" as="geometry" />
        </mxCell>
        <mxCell id="-EnCmzLxLTZiHMwrgFdv-5" value="Render message" style="rounded=0;whiteSpace=wrap;html=1;fillColor=#d5e8d4;strokeColor=#82b366;" vertex="1" parent="1">
          <mxGeometry x="600" y="280" width="160" height="60" as="geometry" />
        </mxCell>
        <mxCell id="-EnCmzLxLTZiHMwrgFdv-6" value="" style="endArrow=classic;html=1;entryX=0.5;entryY=0;entryDx=0;entryDy=0;" edge="1" parent="1" source="-EnCmzLxLTZiHMwrgFdv-1" target="-EnCmzLxLTZiHMwrgFdv-2">
          <mxGeometry width="50" height="50" relative="1" as="geometry">
            <mxPoint x="200" y="150" as="sourcePoint" />
            <mxPoint x="230" y="140" as="targetPoint" />
          </mxGeometry>
        </mxCell>
        <mxCell id="-EnCmzLxLTZiHMwrgFdv-7" value="" style="endArrow=classic;html=1;entryX=0;entryY=0.5;entryDx=0;entryDy=0;" edge="1" parent="1" source="-EnCmzLxLTZiHMwrgFdv-2" target="-EnCmzLxLTZiHMwrgFdv-3">
          <mxGeometry width="50" height="50" relative="1" as="geometry">
            <mxPoint x="280" y="240" as="sourcePoint" />
            <mxPoint x="350.71067811865476" y="190" as="targetPoint" />
          </mxGeometry>
        </mxCell>
        <mxCell id="-EnCmzLxLTZiHMwrgFdv-9" value="" style="endArrow=classic;html=1;entryX=0;entryY=0.5;entryDx=0;entryDy=0;" edge="1" parent="1" source="-EnCmzLxLTZiHMwrgFdv-3" target="-EnCmzLxLTZiHMwrgFdv-4">
          <mxGeometry width="50" height="50" relative="1" as="geometry">
            <mxPoint x="520" y="240" as="sourcePoint" />
            <mxPoint x="590.7106781186548" y="190" as="targetPoint" />
          </mxGeometry>
        </mxCell>
        <mxCell id="-EnCmzLxLTZiHMwrgFdv-10" value="" style="endArrow=classic;html=1;" edge="1" parent="1" source="-EnCmzLxLTZiHMwrgFdv-4">
          <mxGeometry width="50" height="50" relative="1" as="geometry">
            <mxPoint x="680" y="270" as="sourcePoint" />
            <mxPoint x="680" y="280" as="targetPoint" />
          </mxGeometry>
        </mxCell>
      </root>
    </mxGraphModel>
  </diagram>
</mxfile>
